<svg width="800" height="800" viewBox="0 0 800 800" fill="none" xmlns="http://www.w3.org/2000/svg">
<g clip-path="url(#clip0_294_20)">
<path d="M186.55 511.707C175.792 505.163 163.769 500.267 153.594 496.123C150.457 494.846 147.495 493.64 144.801 492.479C139.877 490.356 139.251 488.632 139.183 488.283C139.107 487.894 139.164 486.458 141.784 483.7C146.875 478.34 157.537 472.373 169.423 467.227L169.426 467.226C176.162 464.305 180.764 460.309 183.293 455.075C185.77 449.951 185.907 444.352 185.203 438.92C184.531 433.735 183.002 428.127 181.487 422.568C181.426 422.343 181.365 422.119 181.304 421.895C179.694 415.984 178.078 409.951 177.126 403.67C176.227 397.675 177.093 394.559 178.024 392.999C178.875 391.576 180.185 390.775 182.042 390.385C184.006 389.972 186.261 390.111 188.203 390.442C189.139 390.601 189.926 390.791 190.467 390.937C190.467 390.937 190.467 390.937 190.467 390.937L220.367 414.707C205.202 440.602 189.971 474.821 186.55 511.707Z" stroke="#AC4A36" stroke-width="10"/>
<mask id="path-2-inside-1_294_20" fill="white">
<path d="M641.542 665.975C630.388 666.172 619.614 664.492 611.689 662.877C603.797 661.23 598.69 659.632 598.69 659.632C598.69 659.632 620.371 661.493 640.372 656.518C650.307 654.244 659.549 649.928 663.553 645.71C664.492 644.656 665.283 643.75 665.596 642.942C665.711 642.811 665.645 642.811 665.695 642.712C665.299 632.201 664.228 620.767 662.169 608.757C655.612 610.618 648.478 611.541 641.509 611.623C630.339 611.821 619.581 610.14 611.673 608.526C603.764 606.878 598.674 605.28 598.674 605.28C598.674 605.28 620.338 607.142 640.339 602.166C647.621 600.486 654.508 597.718 659.269 594.703C654.112 572.956 645.381 550.418 630.701 530.154C624.54 521.636 620.47 504.601 616.401 492.063C581.424 453.297 527.336 380.411 536.678 308.563C537.996 298.464 539.528 288.381 541.044 278.298C543.778 260.307 546.579 241.707 548.078 223.436C550.698 191.211 542.971 171.259 525.722 141.241L524.519 139.116C517.468 126.892 508.686 111.438 505.21 95.7535C504.304 96.8409 503.348 97.9282 502.442 98.9991C497.879 103.76 492.755 107.714 488.834 110.433C484.781 112.97 482.079 114.667 482.079 114.667C482.079 114.667 484.419 112.509 487.895 109.28C491.223 105.919 495.358 101.19 498.702 96.0501C500.202 93.3976 501.833 90.8439 502.673 88.2573C503.217 87.137 503.497 86.0332 503.711 84.9953C503.661 83.842 503.826 82.7052 503.859 81.5684C491.816 64.3519 478.158 44.5982 471.14 33.4775C463.66 21.6319 452.259 0 431.83 0C413.229 0 387.116 17.9414 349.652 77.5485C349.652 77.5485 349.026 77.6474 348.235 77.7792C349.652 78.9489 351.069 80.1186 352.37 81.519C356.143 85.2753 359.356 89.839 362.47 94.4355C365.32 99.1804 368.038 103.991 370.015 108.769C372.157 113.464 373.442 118.127 374.727 122.048C377.034 130.005 377.429 135.541 377.429 135.541C377.429 135.541 376.539 134.454 375.205 132.444C374.002 130.384 371.86 127.616 369.85 124.19C365.649 117.468 360.064 108.505 354.463 99.5428C349.586 92.0466 344.742 84.6163 340.014 79.3608C333.407 80.7447 324.346 83.0347 314.988 86.3792C315.4 87.0711 315.779 87.6642 316.207 88.4056C319.865 94.8474 324.28 103.596 327.69 112.723C331.216 121.817 333.737 131.29 335.286 138.523C336.818 145.772 337.114 150.863 337.114 150.863C337.114 150.863 333.951 146.859 330.277 140.418C326.62 133.992 322.221 125.228 318.794 116.1C315.285 107.006 312.764 97.5328 311.215 90.3003C311.034 89.4436 310.919 88.7186 310.771 87.9114C304.312 90.4485 298.118 93.5294 292.862 97.2033C292.813 104.288 294.131 113.102 295.482 121.965C297.261 132.378 299.024 142.79 300.358 150.616C301.133 154.52 301.363 158.013 301.841 160.353C302.17 162.741 302.236 164.142 302.236 164.142C302.236 164.142 298.843 159.743 295.284 152.263C293.636 148.49 291.495 144.141 289.979 139.215C288.282 134.338 287.112 128.934 286.091 123.498C285.349 117.995 284.723 112.443 285.053 107.138C285.135 103.612 285.728 100.35 286.486 97.2528C276.7 95.4735 253.305 91.7171 229.103 91.7171C189.645 91.7171 148.326 101.718 161.522 146.612C179.727 208.509 190.947 224.49 195.774 239.746C196.944 240.158 198.245 240.521 199.745 240.619C202.397 241.18 205.445 241.015 208.493 241.015C214.605 240.652 220.767 239.384 225.33 238.165C229.861 236.748 232.876 235.792 232.876 235.792C232.876 235.792 230.059 237.291 225.858 239.549C221.541 241.624 215.577 244.112 209.185 245.727C205.939 246.336 202.694 247.144 199.415 247.111C198.789 247.177 198.196 247.078 197.586 247.078C198.015 249.516 198.311 252.086 198.443 254.969C199.629 279.979 210.355 350.245 266.321 375.254C266.321 375.254 250.439 392.421 234.227 419.259C216.961 447.827 199.399 487.384 200.222 528.852C200.815 558.804 211.096 589.728 238 618.312C237.736 617.933 237.539 617.637 237.539 617.637C237.539 617.637 238.791 618.213 240.965 619.202C246.27 621.624 251.493 623.601 256.798 625.149C256.551 624.227 256.287 623.255 256.106 622.447C255.431 619.844 255.134 618.016 255.134 618.049C255.052 617.571 255.332 617.225 255.711 617.274C255.859 617.274 255.991 617.34 256.122 617.439C256.122 617.439 257.589 618.51 259.599 620.273C260.62 621.146 261.839 622.167 263.026 623.288C264.525 624.721 265.53 625.924 266.238 627.291C269.616 627.835 273.092 628.098 276.65 628.098C276.535 627.686 276.42 627.357 276.288 626.846C275.827 625.281 275.464 623.749 275.168 622.447C274.492 619.844 274.196 618.016 274.196 618.049C274.113 617.571 274.393 617.225 274.772 617.274C274.921 617.274 275.052 617.34 275.184 617.439C275.184 617.439 276.65 618.51 278.66 620.273C279.682 621.146 280.901 622.167 282.087 623.288C283.718 624.853 284.773 626.138 285.481 627.686C289.056 627.275 292.664 626.682 295.893 625.347C297.772 624.573 299.666 623.963 301.462 623.37C305.103 622.283 307.92 620.026 310.095 619.202C312.22 618.164 313.489 617.637 313.489 617.637C313.489 617.637 312.731 618.757 311.281 620.668C301.38 633.568 285.168 640.175 269.006 637.588C264.788 636.913 260.109 635.71 256.254 633.848C251.822 631.69 248.181 628.955 244.804 625.841C241.937 640.488 229.169 766.869 286.783 794.761C287.228 791.367 288.546 788.088 289.929 785.667C291.396 783.146 293.109 781.548 293.109 781.548C293.109 781.548 294.411 783.508 295.234 786.276C296.025 789.077 296.618 792.751 296.141 796.277C296.075 796.919 295.828 797.496 295.712 798.122C298.826 798.979 302.121 799.555 305.597 799.868C305.597 799.044 305.498 798.221 305.614 797.397C305.976 793.855 307.426 790.412 308.859 787.907C310.326 785.387 312.039 783.788 312.039 783.788C312.039 783.788 313.341 785.749 314.164 788.533C314.955 791.334 315.548 794.992 315.071 798.517C315.021 799.028 314.823 799.506 314.725 800C329.371 799.423 346.736 794.563 367.577 783.739C367.577 783.739 392.075 787.347 428.008 787.347C453.956 787.347 485.868 785.469 518.835 778.978C518.835 778.978 538.605 790.593 563.928 792.8C563.565 791.614 563.17 790.412 563.005 789.159C562.494 785.617 563.038 781.943 563.812 779.159C564.603 776.358 565.872 774.381 565.872 774.381C565.872 774.381 567.602 775.946 569.084 778.467C570.567 780.971 572.05 784.365 572.445 787.94C572.725 789.703 572.725 791.515 572.561 793.245C576.136 793.212 579.777 792.932 583.467 792.438C582.742 790.642 582.149 788.715 581.902 786.688C581.375 783.146 581.918 779.472 582.693 776.671C583.434 773.903 584.703 771.91 584.703 771.91C584.703 771.91 586.449 773.492 587.932 775.996C589.398 778.5 590.881 781.91 591.276 785.485C591.556 787.298 591.54 789.159 591.359 790.955C619.465 783.92 648.33 759.323 662.877 694.46C662.877 694.46 665.266 681.61 665.843 662.021C658.363 664.805 649.812 665.859 641.542 665.975ZM529.165 566.382C529.165 575.197 522.015 582.347 513.201 582.347C504.386 582.347 497.236 575.197 497.236 566.382C497.236 557.568 504.386 550.418 513.201 550.418C522.031 550.418 529.165 557.552 529.165 566.382ZM469.294 626.006C484.6 620.981 499.757 615.511 515.244 611.211C522.278 609.251 526.957 613.88 528.094 620.932C529.379 628.823 523.267 635.051 512.673 635.957C514.535 630.421 516.051 625.924 518.11 619.811C500.778 621.755 486.363 633.436 469.294 626.006ZM419.539 602.035C415.174 601.063 410.626 600.914 406.112 600.387C397.562 613.897 383.558 620.404 371.399 607.603C390.214 606.829 398.006 594.95 401.005 578.343C401.96 578.591 402.916 578.805 403.888 579.052C405.733 582.808 407.595 586.548 409.605 590.601C436.064 591.853 440.792 594.374 441.682 608.13C442.489 620.322 433.939 630.784 421.187 633.173C413.345 634.623 406.705 629.219 403.542 619.795C410.099 619.103 417.332 619.482 423.526 617.159C426.525 616.055 427.596 609.778 429.523 605.84C426.212 604.539 422.983 602.809 419.539 602.035ZM398.023 681.313C393.36 675.843 389.884 671.79 385.156 666.288C399.176 665.678 401.318 668.133 398.023 681.313ZM438.914 578.014C427.876 578.442 416.442 579.085 405.849 576.663C398.731 574.999 392.817 568.294 385.403 563.203C405.19 563.203 421.879 562.758 438.519 563.565C441.748 563.73 444.713 568.887 447.811 571.72C444.845 573.928 441.946 577.899 438.914 578.014ZM442.143 437.283C443.972 442.819 447.102 450.233 452.473 456.345C454.351 459.08 456.938 461.304 459.574 463.363C454.961 465.637 449.837 467.021 444.367 467.021C425.174 467.021 409.621 451.452 409.621 432.275C409.605 413.065 425.157 397.512 444.351 397.512C463.561 397.512 479.097 413.065 479.097 432.242C479.097 442.127 474.945 450.974 468.355 457.301C467.614 456.938 466.905 456.526 466.164 456.131C463.66 454.467 460.431 453.33 457.861 450.974C452.226 446.74 448.404 440.611 445.257 436.163C442.687 431.138 440.974 427.777 440.974 427.777C440.875 427.579 440.661 427.481 440.446 427.53C440.183 427.579 440.018 427.843 440.084 428.107C440.084 428.074 440.908 431.748 442.143 437.283ZM438.156 549.545C433 541.34 444.285 539.676 450.018 538.539C453.544 537.831 458.108 537.979 461.337 536.249C462.688 535.541 471.634 525.821 468.536 524.98C460.249 522.723 451.172 522.954 442.901 520.631C441.83 513.201 464.236 506.116 469.591 503.942C473.034 502.541 477.96 504.765 482.211 505.326C481.371 509.527 480.959 513.876 479.641 517.896C478.553 521.175 476.395 524.107 474.698 527.205C475.555 528.061 476.412 528.902 477.252 529.758C478.026 530.533 492.063 525.244 494.304 525.261C497.368 525.293 511.487 530.121 505.21 535.953C502.805 538.177 498.9 539.544 495.506 539.825C486.396 540.566 480.695 540.171 478.883 549.99C476.247 564.323 480.81 575.955 474.781 589.991C473.578 589.761 472.375 589.563 471.156 589.349C470.316 575.576 469.443 561.802 468.602 547.815C468.767 551.077 442.357 556.25 438.156 549.545ZM496.907 605.494C497.549 608.065 494.584 614.16 493.002 614.259C483.661 614.836 480.201 608.46 478.191 598.97C487.038 597.207 494.501 595.873 496.907 605.494ZM488.043 217.983C488.175 217.95 488.307 218.016 488.34 218.147C488.373 218.263 488.307 218.378 488.208 218.427C488.208 218.427 476.214 223.65 465.077 230.092C459.376 233.189 454.104 236.632 449.755 238.725C445.372 240.784 442.012 241.723 442.012 241.723C441.896 241.773 441.748 241.723 441.682 241.608C441.649 241.526 441.682 241.41 441.715 241.344C441.715 241.344 443.807 238.774 447.646 235.578C449.574 234.029 451.831 232.151 454.533 230.586C457.202 228.988 460.365 227.967 463.38 226.681C475.357 221.195 488.043 217.983 488.043 217.983ZM473.726 192.397C473.858 192.331 474.006 192.364 474.072 192.479C474.138 192.578 474.105 192.71 474.023 192.792C474.023 192.792 463.891 201.03 454.895 210.239C450.249 214.753 446.081 219.482 442.473 222.678C438.832 225.841 435.833 227.637 435.833 227.637C435.734 227.719 435.57 227.719 435.487 227.604C435.438 227.538 435.438 227.423 435.454 227.341C435.454 227.341 436.789 224.293 439.606 220.19C441.056 218.18 442.736 215.758 444.911 213.534C447.036 211.294 449.821 209.449 452.374 207.389C462.391 198.904 473.726 192.397 473.726 192.397ZM411.516 196.384C411.598 194.456 412.883 192.907 413.625 191.062C415.421 187.438 418.847 184.67 421.764 181.787C425.223 179.414 428.42 176.844 432.093 175.592C433.889 174.917 435.388 173.912 437.234 173.73C438.964 173.417 440.578 173.121 442.094 172.841C445.026 172.248 447.349 172.791 449.03 172.676C450.694 172.725 451.633 172.742 451.633 172.742C451.897 172.742 452.111 172.973 452.094 173.236C452.094 173.467 451.913 173.648 451.732 173.697C451.732 173.697 450.793 173.912 449.162 174.291C447.613 174.801 445.043 174.884 442.621 176.136C440.166 177.338 437.382 178.36 434.713 180.452C431.813 182.05 429.556 184.835 427.134 187.191C425.339 190.189 423.395 192.875 422.324 195.807C420.61 198.394 419.375 200.997 418.09 203.303C416.541 205.544 416.146 207.752 415.091 209.251C414.284 210.783 413.641 211.722 413.641 211.722C413.51 211.986 413.196 212.101 412.933 211.969C412.85 211.92 412.735 211.788 412.686 211.722C412.686 211.722 412.224 210.783 411.747 209.02C411.302 207.29 410.445 204.605 410.758 201.475C411.005 199.893 411.252 198.196 411.516 196.384ZM356.95 281.346C358.911 280.72 361.333 280.358 363.557 279.287C365.896 278.38 367.824 276.815 369.422 275.135C370.674 273.125 371.58 271.066 371.91 268.743C372.371 266.568 372.19 264.311 372.355 262.531C372.272 261.164 372.19 260.027 372.124 259.006C366.621 257.918 361.053 254.014 359.636 251.542C357.56 247.918 365.237 248.923 371.827 245.15C378.417 241.361 381.449 234.26 383.525 237.868C385.057 240.537 385.584 248.231 383.162 253.651C383.97 254.426 384.678 255.167 385.667 255.826C387.528 257.243 389.621 258.05 391.927 258.594C394.234 258.66 396.705 258.413 399.011 257.391C401.334 256.584 403.311 255.134 405.14 254.179C408.501 251.691 410.742 250.043 410.742 250.043C410.742 250.043 408.88 252.152 406.096 255.332C404.465 256.683 402.784 258.594 400.412 260.06C398.122 261.708 395.239 262.811 391.927 263.355C388.616 263.405 385.37 262.844 382.635 261.592C381.877 261.296 381.399 260.9 380.724 260.538C380.609 261.279 380.493 262.054 380.362 262.927C379.719 265.233 379.324 267.952 378.088 270.687C377.05 273.504 375.139 276.206 372.766 278.496C370.048 280.44 367.231 281.708 364.43 282.153C361.728 282.779 359.174 282.631 357.066 282.812C352.848 282.549 350.047 282.367 350.047 282.367C350.047 282.367 352.832 281.972 356.95 281.346ZM347.938 389.802C352.815 388.83 358.087 387.792 363.672 386.672C369.142 385.074 374.892 383.475 380.823 382.042C386.754 380.592 392.866 379.175 399.127 378.006C405.354 376.737 411.351 374.332 417.546 372.668C423.757 371.004 429.952 369.356 436.064 367.725C441.929 365.468 447.778 363.458 453.544 361.596C459.376 359.817 464.994 358.137 470.019 355.814C475.11 353.622 480.184 351.893 484.88 350.212C493.628 345.945 501.833 343.095 506.973 340.327C512.509 337.889 515.705 336.126 515.705 336.126C515.705 336.126 514.387 339.404 510.779 344.495C507.401 349.965 501.421 356.341 493.727 363.936C489.674 367.313 485.176 370.938 480.201 374.48C475.341 378.302 469.92 381.795 463.923 384.645C460.941 386.21 457.696 387.726 454.582 389.275C451.271 388.5 447.91 387.973 444.367 387.973C430.759 387.973 418.716 394.267 410.593 403.954C408.699 404.382 406.821 404.926 404.893 405.14C398.023 406.013 391.202 406.607 384.645 407.117C378.071 407.628 371.729 407.925 365.748 408.106C359.735 407.842 354.034 406.87 348.828 406.195C327.938 403.394 314.659 398.962 314.659 398.962C314.659 398.962 328.349 393.756 347.938 389.802ZM309.271 300.128C304.905 302.171 298.892 304.082 292.895 306.537C280.852 311.1 269.237 317.064 269.237 317.064C269.121 317.13 268.973 317.081 268.907 316.965C268.858 316.866 268.891 316.735 268.99 316.652C268.99 316.652 279.501 308.876 291.297 303.06C294.213 301.545 296.997 299.749 299.913 298.694C302.83 297.607 305.713 297.03 308.134 296.503C313.044 295.564 316.356 295.564 316.356 295.564C316.487 295.564 316.603 295.679 316.603 295.811C316.603 295.894 316.52 295.992 316.471 296.025C316.471 296.025 313.621 298.052 309.271 300.128ZM263.734 251.197C264.821 249.911 265.76 247.72 267.985 245.727C269.105 244.689 270.308 243.552 271.593 242.349C272.845 240.982 274.542 240.372 276.156 239.334C279.352 237.127 283.323 236.089 287.277 234.721C291.33 234.095 295.597 232.991 299.567 233.7C301.495 234.211 303.505 234.095 305.103 235.183C306.718 236.039 308.233 236.847 309.634 237.605C312.319 239.219 313.983 241.509 315.103 242.893C316.224 244.326 316.718 245.249 316.718 245.249C316.85 245.513 316.751 245.826 316.487 245.957C316.405 246.007 316.224 246.023 316.141 246.007C316.141 246.007 315.005 245.957 313.291 245.71C311.462 245.677 309.453 244.689 306.734 244.59C304.115 244.244 301.281 243.684 298.184 243.536C295.185 242.646 291.874 242.596 288.397 242.267C285.069 242.827 281.494 242.975 278.479 244.343C275.201 245.249 272.729 246.864 270.291 248.132C267.836 249.351 266.238 251.361 264.904 252.3C263.635 253.388 262.91 253.997 262.91 253.997C262.713 254.162 262.399 254.146 262.235 253.948C262.086 253.783 262.086 253.536 262.202 253.355C262.235 253.322 262.778 252.547 263.734 251.197ZM257.424 279.171C257.292 279.188 257.177 279.089 257.16 278.957C257.144 278.842 257.226 278.726 257.342 278.694C257.342 278.694 269.962 275.283 283.076 274.163C286.338 273.817 289.6 273.158 292.697 273.24C295.811 273.29 298.694 273.8 301.149 274.196C306.059 275.102 309.156 276.321 309.156 276.321C309.288 276.371 309.337 276.502 309.288 276.634C309.255 276.717 309.156 276.766 309.074 276.799C309.074 276.799 305.68 277.639 300.869 277.985C296.058 278.298 289.765 277.886 283.29 277.985C270.406 277.837 257.424 279.171 257.424 279.171ZM335.417 739.652C333.193 738.614 330.409 736.653 326.636 735.302C324.791 734.61 322.797 733.852 320.689 733.061C318.695 732.04 316.191 732.106 313.917 731.43C309.321 730.014 304.197 730.112 299.172 729.602C294.164 730.112 289.04 729.981 284.427 731.398C282.17 732.106 279.6 732.04 277.705 733.012C275.629 733.77 273.685 734.495 271.873 735.17C268.133 736.455 265.068 738.63 262.894 739.635C260.703 740.755 259.368 741.316 259.368 741.316C259.368 741.316 260.175 740.113 261.724 738.202C263.52 736.505 265.036 733.177 268.759 730.837C270.621 729.585 272.631 728.218 274.756 726.768C276.881 725.071 279.418 724.396 282.038 723.407C284.674 722.567 287.326 721.15 290.292 721.084C293.208 720.738 296.19 720.409 299.156 720.063C302.121 720.409 305.103 720.738 308.019 721.051C310.985 721.117 313.637 722.534 316.273 723.374C318.876 724.379 321.479 725.088 323.506 726.686C325.582 728.103 327.559 729.453 329.371 730.673C333.061 732.979 334.857 736.554 336.604 738.202C338.169 740.129 338.927 741.299 338.927 741.299C338.927 741.299 337.592 740.772 335.417 739.652ZM303.208 592.034C216.269 540.846 271.049 443.181 271.049 443.181C293.669 401.499 316.306 425.322 366.325 489.608C370.081 494.436 372.832 499.147 375.122 503.777C374.546 504.205 373.837 504.469 373.491 505.144C373.491 505.144 372.388 507.253 370.625 509.527C369.027 512.08 366.308 515.194 363.244 518.209C360.493 521.603 356.72 523.646 354.133 525.672C351.431 527.6 349.635 528.885 349.635 528.885C349.635 528.885 351.695 528.111 354.792 526.99C357.84 525.738 362.387 524.602 366.111 521.998C370.081 519.774 373.986 517.237 376.671 514.782C377.726 513.959 378.335 513.398 378.994 512.805C395.65 565.41 326.158 602.447 303.208 592.034ZM384.629 715.713C381.169 718.481 374.925 718.283 369.916 718.316C368.186 718.316 365.221 715.153 365.056 713.225C364.924 711.578 367.643 708.925 369.669 708.019C374.084 706.059 379.011 705.284 383.459 703.406C387.907 701.512 392.059 698.843 396.326 696.503C397.084 697.212 397.825 697.887 398.583 698.563C394.036 704.411 390.247 711.215 384.629 715.713ZM407.48 728.383C406.326 728.333 405.157 728.3 404.003 728.251C404.003 722.666 403.872 717.064 404.036 711.496C404.218 705.812 404.712 700.161 405.091 694.048C395.98 692.22 388.533 690.869 381.185 689.089C378.763 688.496 376.605 686.799 371.317 684.031C380.955 684.031 387.528 683.125 393.756 684.229C403.657 685.943 407.035 682.071 406.409 672.762C406.129 668.594 406.359 664.393 406.359 660.258C399.769 656.996 393.278 653.783 386.787 650.587C387.05 649.829 387.314 649.055 387.561 648.28C392.224 648.28 397.133 649.203 401.45 648C405.14 646.979 408.172 643.536 411.17 641.427C413.411 643.717 415.668 646.929 418.732 648.857C421.632 650.669 425.372 651.114 428.749 652.136C428.815 653.272 428.864 654.426 428.93 655.562C424.317 656.946 419.721 658.33 413.295 660.258C412.916 666.798 412.488 674.492 412.043 682.664C425.454 685.168 438.634 676.782 452.358 685.877C439.573 697.623 424.449 687.936 412.323 694.46C407.76 704.873 415.783 718.168 407.48 728.383ZM434.515 670.341C430.71 673.537 426.887 676.749 423.082 679.929C421.418 678.545 419.77 677.128 418.106 675.712C420.594 671.444 423.082 667.194 425.569 662.96C428.551 665.464 431.533 667.902 434.515 670.341ZM461.716 726.356C456.18 727.444 448.98 728.234 444.664 725.549C434.219 719.008 425.059 710.408 415.371 702.648C416.146 701.479 416.92 700.292 417.678 699.139C423.46 702.385 428.93 706.537 435.092 708.662C442.259 711.133 450.101 711.594 457.548 713.39C460.843 714.197 463.923 716.059 467.12 717.443C465.357 720.573 464.039 725.895 461.716 726.356ZM507.286 735.566C503.975 745.764 492.063 750.459 481.898 749.075C476.395 748.334 470.645 746.884 468.388 741.859C468.256 741.579 468.158 741.299 468.042 741.003C461.518 722.023 484.435 718.069 496.116 716.932C506.792 715.911 510.235 726.587 507.286 735.566ZM492.771 670.785C505.424 666.172 515.524 667.935 519.296 675.58C522.295 681.643 516.957 696.767 509.428 701.956C500.976 707.772 491.602 709.848 482.557 703.769C474.319 698.266 469.558 690.654 474.072 680.292C467.532 679.55 462.029 678.941 456.23 678.265C466.938 670.291 476.164 663.635 484.946 656.485C485.753 655.843 483.825 651.823 483.545 650.818C487.796 647.934 491.618 645.331 495.473 642.745C494.847 641.773 494.238 640.817 493.595 639.845C486.544 640.224 480.975 641.839 477.647 650.109C474.748 657.325 468.784 662.235 459.936 658.577C462.803 655.002 465.34 651.246 467.96 647.671C455.785 643.651 453.495 637.473 458.734 623.354C462.391 632.3 465.143 639.021 468.421 647.028C471.321 643.157 474.336 639.565 478.059 636.929C483.924 632.744 492.87 632.481 500.564 631.608C501.619 631.492 504.65 637.885 504.551 641.196C504.419 644.557 501.569 647.852 501.009 654.805C509.115 653.437 517.204 651.856 525.376 650.801C528.341 650.422 531.455 651.213 534.519 651.46C533.432 654.063 533.02 657.391 531.126 659.138C522.526 667.161 512.014 669.303 501.586 664.097C492.722 659.665 489.295 663.125 485.473 672.054C488.966 671.477 490.959 671.428 492.771 670.785ZM618.79 718.843C615.973 718.267 612.299 716.768 607.636 716.306C605.313 716.01 602.842 715.73 600.206 715.4C597.636 714.824 594.802 715.598 591.968 715.466C586.301 715.219 580.469 716.883 574.554 717.789C571.737 718.794 568.903 719.783 566.119 720.771C563.219 721.529 560.814 723.176 558.26 724.461C555.904 725.977 553.005 726.719 551.143 728.448C549.051 729.997 547.057 731.447 545.228 732.798C541.439 735.467 538.754 738.91 536.645 740.739C534.585 742.732 533.317 743.803 533.317 743.803C533.317 743.803 533.91 742.255 535.145 739.652C536.727 737.246 537.551 733.111 541.093 729.388C542.823 727.476 544.701 725.368 546.695 723.143C548.589 720.689 551.258 719.222 553.911 717.311C556.646 715.598 559.183 713.291 562.494 712.319C565.657 711.084 568.887 709.848 572.099 708.579C575.51 708.069 578.92 707.558 582.297 707.031C585.642 706.224 589.019 706.981 592.215 707.097C595.395 707.426 598.558 707.393 601.326 708.563C604.094 709.486 606.697 710.359 609.119 711.166C613.946 712.566 617.093 715.927 619.614 717.196C622.002 718.827 623.238 719.832 623.238 719.832C623.238 719.832 621.541 719.552 618.79 718.843Z"/>
</mask>
<path d="M641.542 665.975C630.388 666.172 619.614 664.492 611.689 662.877C603.797 661.23 598.69 659.632 598.69 659.632C598.69 659.632 620.371 661.493 640.372 656.518C650.307 654.244 659.549 649.928 663.553 645.71C664.492 644.656 665.283 643.75 665.596 642.942C665.711 642.811 665.645 642.811 665.695 642.712C665.299 632.201 664.228 620.767 662.169 608.757C655.612 610.618 648.478 611.541 641.509 611.623C630.339 611.821 619.581 610.14 611.673 608.526C603.764 606.878 598.674 605.28 598.674 605.28C598.674 605.28 620.338 607.142 640.339 602.166C647.621 600.486 654.508 597.718 659.269 594.703C654.112 572.956 645.381 550.418 630.701 530.154C624.54 521.636 620.47 504.601 616.401 492.063C581.424 453.297 527.336 380.411 536.678 308.563C537.996 298.464 539.528 288.381 541.044 278.298C543.778 260.307 546.579 241.707 548.078 223.436C550.698 191.211 542.971 171.259 525.722 141.241L524.519 139.116C517.468 126.892 508.686 111.438 505.21 95.7535C504.304 96.8409 503.348 97.9282 502.442 98.9991C497.879 103.76 492.755 107.714 488.834 110.433C484.781 112.97 482.079 114.667 482.079 114.667C482.079 114.667 484.419 112.509 487.895 109.28C491.223 105.919 495.358 101.19 498.702 96.0501C500.202 93.3976 501.833 90.8439 502.673 88.2573C503.217 87.137 503.497 86.0332 503.711 84.9953C503.661 83.842 503.826 82.7052 503.859 81.5684C491.816 64.3519 478.158 44.5982 471.14 33.4775C463.66 21.6319 452.259 0 431.83 0C413.229 0 387.116 17.9414 349.652 77.5485C349.652 77.5485 349.026 77.6474 348.235 77.7792C349.652 78.9489 351.069 80.1186 352.37 81.519C356.143 85.2753 359.356 89.839 362.47 94.4355C365.32 99.1804 368.038 103.991 370.015 108.769C372.157 113.464 373.442 118.127 374.727 122.048C377.034 130.005 377.429 135.541 377.429 135.541C377.429 135.541 376.539 134.454 375.205 132.444C374.002 130.384 371.86 127.616 369.85 124.19C365.649 117.468 360.064 108.505 354.463 99.5428C349.586 92.0466 344.742 84.6163 340.014 79.3608C333.407 80.7447 324.346 83.0347 314.988 86.3792C315.4 87.0711 315.779 87.6642 316.207 88.4056C319.865 94.8474 324.28 103.596 327.69 112.723C331.216 121.817 333.737 131.29 335.286 138.523C336.818 145.772 337.114 150.863 337.114 150.863C337.114 150.863 333.951 146.859 330.277 140.418C326.62 133.992 322.221 125.228 318.794 116.1C315.285 107.006 312.764 97.5328 311.215 90.3003C311.034 89.4436 310.919 88.7186 310.771 87.9114C304.312 90.4485 298.118 93.5294 292.862 97.2033C292.813 104.288 294.131 113.102 295.482 121.965C297.261 132.378 299.024 142.79 300.358 150.616C301.133 154.52 301.363 158.013 301.841 160.353C302.17 162.741 302.236 164.142 302.236 164.142C302.236 164.142 298.843 159.743 295.284 152.263C293.636 148.49 291.495 144.141 289.979 139.215C288.282 134.338 287.112 128.934 286.091 123.498C285.349 117.995 284.723 112.443 285.053 107.138C285.135 103.612 285.728 100.35 286.486 97.2528C276.7 95.4735 253.305 91.7171 229.103 91.7171C189.645 91.7171 148.326 101.718 161.522 146.612C179.727 208.509 190.947 224.49 195.774 239.746C196.944 240.158 198.245 240.521 199.745 240.619C202.397 241.18 205.445 241.015 208.493 241.015C214.605 240.652 220.767 239.384 225.33 238.165C229.861 236.748 232.876 235.792 232.876 235.792C232.876 235.792 230.059 237.291 225.858 239.549C221.541 241.624 215.577 244.112 209.185 245.727C205.939 246.336 202.694 247.144 199.415 247.111C198.789 247.177 198.196 247.078 197.586 247.078C198.015 249.516 198.311 252.086 198.443 254.969C199.629 279.979 210.355 350.245 266.321 375.254C266.321 375.254 250.439 392.421 234.227 419.259C216.961 447.827 199.399 487.384 200.222 528.852C200.815 558.804 211.096 589.728 238 618.312C237.736 617.933 237.539 617.637 237.539 617.637C237.539 617.637 238.791 618.213 240.965 619.202C246.27 621.624 251.493 623.601 256.798 625.149C256.551 624.227 256.287 623.255 256.106 622.447C255.431 619.844 255.134 618.016 255.134 618.049C255.052 617.571 255.332 617.225 255.711 617.274C255.859 617.274 255.991 617.34 256.122 617.439C256.122 617.439 257.589 618.51 259.599 620.273C260.62 621.146 261.839 622.167 263.026 623.288C264.525 624.721 265.53 625.924 266.238 627.291C269.616 627.835 273.092 628.098 276.65 628.098C276.535 627.686 276.42 627.357 276.288 626.846C275.827 625.281 275.464 623.749 275.168 622.447C274.492 619.844 274.196 618.016 274.196 618.049C274.113 617.571 274.393 617.225 274.772 617.274C274.921 617.274 275.052 617.34 275.184 617.439C275.184 617.439 276.65 618.51 278.66 620.273C279.682 621.146 280.901 622.167 282.087 623.288C283.718 624.853 284.773 626.138 285.481 627.686C289.056 627.275 292.664 626.682 295.893 625.347C297.772 624.573 299.666 623.963 301.462 623.37C305.103 622.283 307.92 620.026 310.095 619.202C312.22 618.164 313.489 617.637 313.489 617.637C313.489 617.637 312.731 618.757 311.281 620.668C301.38 633.568 285.168 640.175 269.006 637.588C264.788 636.913 260.109 635.71 256.254 633.848C251.822 631.69 248.181 628.955 244.804 625.841C241.937 640.488 229.169 766.869 286.783 794.761C287.228 791.367 288.546 788.088 289.929 785.667C291.396 783.146 293.109 781.548 293.109 781.548C293.109 781.548 294.411 783.508 295.234 786.276C296.025 789.077 296.618 792.751 296.141 796.277C296.075 796.919 295.828 797.496 295.712 798.122C298.826 798.979 302.121 799.555 305.597 799.868C305.597 799.044 305.498 798.221 305.614 797.397C305.976 793.855 307.426 790.412 308.859 787.907C310.326 785.387 312.039 783.788 312.039 783.788C312.039 783.788 313.341 785.749 314.164 788.533C314.955 791.334 315.548 794.992 315.071 798.517C315.021 799.028 314.823 799.506 314.725 800C329.371 799.423 346.736 794.563 367.577 783.739C367.577 783.739 392.075 787.347 428.008 787.347C453.956 787.347 485.868 785.469 518.835 778.978C518.835 778.978 538.605 790.593 563.928 792.8C563.565 791.614 563.17 790.412 563.005 789.159C562.494 785.617 563.038 781.943 563.812 779.159C564.603 776.358 565.872 774.381 565.872 774.381C565.872 774.381 567.602 775.946 569.084 778.467C570.567 780.971 572.05 784.365 572.445 787.94C572.725 789.703 572.725 791.515 572.561 793.245C576.136 793.212 579.777 792.932 583.467 792.438C582.742 790.642 582.149 788.715 581.902 786.688C581.375 783.146 581.918 779.472 582.693 776.671C583.434 773.903 584.703 771.91 584.703 771.91C584.703 771.91 586.449 773.492 587.932 775.996C589.398 778.5 590.881 781.91 591.276 785.485C591.556 787.298 591.54 789.159 591.359 790.955C619.465 783.92 648.33 759.323 662.877 694.46C662.877 694.46 665.266 681.61 665.843 662.021C658.363 664.805 649.812 665.859 641.542 665.975ZM529.165 566.382C529.165 575.197 522.015 582.347 513.201 582.347C504.386 582.347 497.236 575.197 497.236 566.382C497.236 557.568 504.386 550.418 513.201 550.418C522.031 550.418 529.165 557.552 529.165 566.382ZM469.294 626.006C484.6 620.981 499.757 615.511 515.244 611.211C522.278 609.251 526.957 613.88 528.094 620.932C529.379 628.823 523.267 635.051 512.673 635.957C514.535 630.421 516.051 625.924 518.11 619.811C500.778 621.755 486.363 633.436 469.294 626.006ZM419.539 602.035C415.174 601.063 410.626 600.914 406.112 600.387C397.562 613.897 383.558 620.404 371.399 607.603C390.214 606.829 398.006 594.95 401.005 578.343C401.96 578.591 402.916 578.805 403.888 579.052C405.733 582.808 407.595 586.548 409.605 590.601C436.064 591.853 440.792 594.374 441.682 608.13C442.489 620.322 433.939 630.784 421.187 633.173C413.345 634.623 406.705 629.219 403.542 619.795C410.099 619.103 417.332 619.482 423.526 617.159C426.525 616.055 427.596 609.778 429.523 605.84C426.212 604.539 422.983 602.809 419.539 602.035ZM398.023 681.313C393.36 675.843 389.884 671.79 385.156 666.288C399.176 665.678 401.318 668.133 398.023 681.313ZM438.914 578.014C427.876 578.442 416.442 579.085 405.849 576.663C398.731 574.999 392.817 568.294 385.403 563.203C405.19 563.203 421.879 562.758 438.519 563.565C441.748 563.73 444.713 568.887 447.811 571.72C444.845 573.928 441.946 577.899 438.914 578.014ZM442.143 437.283C443.972 442.819 447.102 450.233 452.473 456.345C454.351 459.08 456.938 461.304 459.574 463.363C454.961 465.637 449.837 467.021 444.367 467.021C425.174 467.021 409.621 451.452 409.621 432.275C409.605 413.065 425.157 397.512 444.351 397.512C463.561 397.512 479.097 413.065 479.097 432.242C479.097 442.127 474.945 450.974 468.355 457.301C467.614 456.938 466.905 456.526 466.164 456.131C463.66 454.467 460.431 453.33 457.861 450.974C452.226 446.74 448.404 440.611 445.257 436.163C442.687 431.138 440.974 427.777 440.974 427.777C440.875 427.579 440.661 427.481 440.446 427.53C440.183 427.579 440.018 427.843 440.084 428.107C440.084 428.074 440.908 431.748 442.143 437.283ZM438.156 549.545C433 541.34 444.285 539.676 450.018 538.539C453.544 537.831 458.108 537.979 461.337 536.249C462.688 535.541 471.634 525.821 468.536 524.98C460.249 522.723 451.172 522.954 442.901 520.631C441.83 513.201 464.236 506.116 469.591 503.942C473.034 502.541 477.96 504.765 482.211 505.326C481.371 509.527 480.959 513.876 479.641 517.896C478.553 521.175 476.395 524.107 474.698 527.205C475.555 528.061 476.412 528.902 477.252 529.758C478.026 530.533 492.063 525.244 494.304 525.261C497.368 525.293 511.487 530.121 505.21 535.953C502.805 538.177 498.9 539.544 495.506 539.825C486.396 540.566 480.695 540.171 478.883 549.99C476.247 564.323 480.81 575.955 474.781 589.991C473.578 589.761 472.375 589.563 471.156 589.349C470.316 575.576 469.443 561.802 468.602 547.815C468.767 551.077 442.357 556.25 438.156 549.545ZM496.907 605.494C497.549 608.065 494.584 614.16 493.002 614.259C483.661 614.836 480.201 608.46 478.191 598.97C487.038 597.207 494.501 595.873 496.907 605.494ZM488.043 217.983C488.175 217.95 488.307 218.016 488.34 218.147C488.373 218.263 488.307 218.378 488.208 218.427C488.208 218.427 476.214 223.65 465.077 230.092C459.376 233.189 454.104 236.632 449.755 238.725C445.372 240.784 442.012 241.723 442.012 241.723C441.896 241.773 441.748 241.723 441.682 241.608C441.649 241.526 441.682 241.41 441.715 241.344C441.715 241.344 443.807 238.774 447.646 235.578C449.574 234.029 451.831 232.151 454.533 230.586C457.202 228.988 460.365 227.967 463.38 226.681C475.357 221.195 488.043 217.983 488.043 217.983ZM473.726 192.397C473.858 192.331 474.006 192.364 474.072 192.479C474.138 192.578 474.105 192.71 474.023 192.792C474.023 192.792 463.891 201.03 454.895 210.239C450.249 214.753 446.081 219.482 442.473 222.678C438.832 225.841 435.833 227.637 435.833 227.637C435.734 227.719 435.57 227.719 435.487 227.604C435.438 227.538 435.438 227.423 435.454 227.341C435.454 227.341 436.789 224.293 439.606 220.19C441.056 218.18 442.736 215.758 444.911 213.534C447.036 211.294 449.821 209.449 452.374 207.389C462.391 198.904 473.726 192.397 473.726 192.397ZM411.516 196.384C411.598 194.456 412.883 192.907 413.625 191.062C415.421 187.438 418.847 184.67 421.764 181.787C425.223 179.414 428.42 176.844 432.093 175.592C433.889 174.917 435.388 173.912 437.234 173.73C438.964 173.417 440.578 173.121 442.094 172.841C445.026 172.248 447.349 172.791 449.03 172.676C450.694 172.725 451.633 172.742 451.633 172.742C451.897 172.742 452.111 172.973 452.094 173.236C452.094 173.467 451.913 173.648 451.732 173.697C451.732 173.697 450.793 173.912 449.162 174.291C447.613 174.801 445.043 174.884 442.621 176.136C440.166 177.338 437.382 178.36 434.713 180.452C431.813 182.05 429.556 184.835 427.134 187.191C425.339 190.189 423.395 192.875 422.324 195.807C420.61 198.394 419.375 200.997 418.09 203.303C416.541 205.544 416.146 207.752 415.091 209.251C414.284 210.783 413.641 211.722 413.641 211.722C413.51 211.986 413.196 212.101 412.933 211.969C412.85 211.92 412.735 211.788 412.686 211.722C412.686 211.722 412.224 210.783 411.747 209.02C411.302 207.29 410.445 204.605 410.758 201.475C411.005 199.893 411.252 198.196 411.516 196.384ZM356.95 281.346C358.911 280.72 361.333 280.358 363.557 279.287C365.896 278.38 367.824 276.815 369.422 275.135C370.674 273.125 371.58 271.066 371.91 268.743C372.371 266.568 372.19 264.311 372.355 262.531C372.272 261.164 372.19 260.027 372.124 259.006C366.621 257.918 361.053 254.014 359.636 251.542C357.56 247.918 365.237 248.923 371.827 245.15C378.417 241.361 381.449 234.26 383.525 237.868C385.057 240.537 385.584 248.231 383.162 253.651C383.97 254.426 384.678 255.167 385.667 255.826C387.528 257.243 389.621 258.05 391.927 258.594C394.234 258.66 396.705 258.413 399.011 257.391C401.334 256.584 403.311 255.134 405.14 254.179C408.501 251.691 410.742 250.043 410.742 250.043C410.742 250.043 408.88 252.152 406.096 255.332C404.465 256.683 402.784 258.594 400.412 260.06C398.122 261.708 395.239 262.811 391.927 263.355C388.616 263.405 385.37 262.844 382.635 261.592C381.877 261.296 381.399 260.9 380.724 260.538C380.609 261.279 380.493 262.054 380.362 262.927C379.719 265.233 379.324 267.952 378.088 270.687C377.05 273.504 375.139 276.206 372.766 278.496C370.048 280.44 367.231 281.708 364.43 282.153C361.728 282.779 359.174 282.631 357.066 282.812C352.848 282.549 350.047 282.367 350.047 282.367C350.047 282.367 352.832 281.972 356.95 281.346ZM347.938 389.802C352.815 388.83 358.087 387.792 363.672 386.672C369.142 385.074 374.892 383.475 380.823 382.042C386.754 380.592 392.866 379.175 399.127 378.006C405.354 376.737 411.351 374.332 417.546 372.668C423.757 371.004 429.952 369.356 436.064 367.725C441.929 365.468 447.778 363.458 453.544 361.596C459.376 359.817 464.994 358.137 470.019 355.814C475.11 353.622 480.184 351.893 484.88 350.212C493.628 345.945 501.833 343.095 506.973 340.327C512.509 337.889 515.705 336.126 515.705 336.126C515.705 336.126 514.387 339.404 510.779 344.495C507.401 349.965 501.421 356.341 493.727 363.936C489.674 367.313 485.176 370.938 480.201 374.48C475.341 378.302 469.92 381.795 463.923 384.645C460.941 386.21 457.696 387.726 454.582 389.275C451.271 388.5 447.91 387.973 444.367 387.973C430.759 387.973 418.716 394.267 410.593 403.954C408.699 404.382 406.821 404.926 404.893 405.14C398.023 406.013 391.202 406.607 384.645 407.117C378.071 407.628 371.729 407.925 365.748 408.106C359.735 407.842 354.034 406.87 348.828 406.195C327.938 403.394 314.659 398.962 314.659 398.962C314.659 398.962 328.349 393.756 347.938 389.802ZM309.271 300.128C304.905 302.171 298.892 304.082 292.895 306.537C280.852 311.1 269.237 317.064 269.237 317.064C269.121 317.13 268.973 317.081 268.907 316.965C268.858 316.866 268.891 316.735 268.99 316.652C268.99 316.652 279.501 308.876 291.297 303.06C294.213 301.545 296.997 299.749 299.913 298.694C302.83 297.607 305.713 297.03 308.134 296.503C313.044 295.564 316.356 295.564 316.356 295.564C316.487 295.564 316.603 295.679 316.603 295.811C316.603 295.894 316.52 295.992 316.471 296.025C316.471 296.025 313.621 298.052 309.271 300.128ZM263.734 251.197C264.821 249.911 265.76 247.72 267.985 245.727C269.105 244.689 270.308 243.552 271.593 242.349C272.845 240.982 274.542 240.372 276.156 239.334C279.352 237.127 283.323 236.089 287.277 234.721C291.33 234.095 295.597 232.991 299.567 233.7C301.495 234.211 303.505 234.095 305.103 235.183C306.718 236.039 308.233 236.847 309.634 237.605C312.319 239.219 313.983 241.509 315.103 242.893C316.224 244.326 316.718 245.249 316.718 245.249C316.85 245.513 316.751 245.826 316.487 245.957C316.405 246.007 316.224 246.023 316.141 246.007C316.141 246.007 315.005 245.957 313.291 245.71C311.462 245.677 309.453 244.689 306.734 244.59C304.115 244.244 301.281 243.684 298.184 243.536C295.185 242.646 291.874 242.596 288.397 242.267C285.069 242.827 281.494 242.975 278.479 244.343C275.201 245.249 272.729 246.864 270.291 248.132C267.836 249.351 266.238 251.361 264.904 252.3C263.635 253.388 262.91 253.997 262.91 253.997C262.713 254.162 262.399 254.146 262.235 253.948C262.086 253.783 262.086 253.536 262.202 253.355C262.235 253.322 262.778 252.547 263.734 251.197ZM257.424 279.171C257.292 279.188 257.177 279.089 257.16 278.957C257.144 278.842 257.226 278.726 257.342 278.694C257.342 278.694 269.962 275.283 283.076 274.163C286.338 273.817 289.6 273.158 292.697 273.24C295.811 273.29 298.694 273.8 301.149 274.196C306.059 275.102 309.156 276.321 309.156 276.321C309.288 276.371 309.337 276.502 309.288 276.634C309.255 276.717 309.156 276.766 309.074 276.799C309.074 276.799 305.68 277.639 300.869 277.985C296.058 278.298 289.765 277.886 283.29 277.985C270.406 277.837 257.424 279.171 257.424 279.171ZM335.417 739.652C333.193 738.614 330.409 736.653 326.636 735.302C324.791 734.61 322.797 733.852 320.689 733.061C318.695 732.04 316.191 732.106 313.917 731.43C309.321 730.014 304.197 730.112 299.172 729.602C294.164 730.112 289.04 729.981 284.427 731.398C282.17 732.106 279.6 732.04 277.705 733.012C275.629 733.77 273.685 734.495 271.873 735.17C268.133 736.455 265.068 738.63 262.894 739.635C260.703 740.755 259.368 741.316 259.368 741.316C259.368 741.316 260.175 740.113 261.724 738.202C263.52 736.505 265.036 733.177 268.759 730.837C270.621 729.585 272.631 728.218 274.756 726.768C276.881 725.071 279.418 724.396 282.038 723.407C284.674 722.567 287.326 721.15 290.292 721.084C293.208 720.738 296.19 720.409 299.156 720.063C302.121 720.409 305.103 720.738 308.019 721.051C310.985 721.117 313.637 722.534 316.273 723.374C318.876 724.379 321.479 725.088 323.506 726.686C325.582 728.103 327.559 729.453 329.371 730.673C333.061 732.979 334.857 736.554 336.604 738.202C338.169 740.129 338.927 741.299 338.927 741.299C338.927 741.299 337.592 740.772 335.417 739.652ZM303.208 592.034C216.269 540.846 271.049 443.181 271.049 443.181C293.669 401.499 316.306 425.322 366.325 489.608C370.081 494.436 372.832 499.147 375.122 503.777C374.546 504.205 373.837 504.469 373.491 505.144C373.491 505.144 372.388 507.253 370.625 509.527C369.027 512.08 366.308 515.194 363.244 518.209C360.493 521.603 356.72 523.646 354.133 525.672C351.431 527.6 349.635 528.885 349.635 528.885C349.635 528.885 351.695 528.111 354.792 526.99C357.84 525.738 362.387 524.602 366.111 521.998C370.081 519.774 373.986 517.237 376.671 514.782C377.726 513.959 378.335 513.398 378.994 512.805C395.65 565.41 326.158 602.447 303.208 592.034ZM384.629 715.713C381.169 718.481 374.925 718.283 369.916 718.316C368.186 718.316 365.221 715.153 365.056 713.225C364.924 711.578 367.643 708.925 369.669 708.019C374.084 706.059 379.011 705.284 383.459 703.406C387.907 701.512 392.059 698.843 396.326 696.503C397.084 697.212 397.825 697.887 398.583 698.563C394.036 704.411 390.247 711.215 384.629 715.713ZM407.48 728.383C406.326 728.333 405.157 728.3 404.003 728.251C404.003 722.666 403.872 717.064 404.036 711.496C404.218 705.812 404.712 700.161 405.091 694.048C395.98 692.22 388.533 690.869 381.185 689.089C378.763 688.496 376.605 686.799 371.317 684.031C380.955 684.031 387.528 683.125 393.756 684.229C403.657 685.943 407.035 682.071 406.409 672.762C406.129 668.594 406.359 664.393 406.359 660.258C399.769 656.996 393.278 653.783 386.787 650.587C387.05 649.829 387.314 649.055 387.561 648.28C392.224 648.28 397.133 649.203 401.45 648C405.14 646.979 408.172 643.536 411.17 641.427C413.411 643.717 415.668 646.929 418.732 648.857C421.632 650.669 425.372 651.114 428.749 652.136C428.815 653.272 428.864 654.426 428.93 655.562C424.317 656.946 419.721 658.33 413.295 660.258C412.916 666.798 412.488 674.492 412.043 682.664C425.454 685.168 438.634 676.782 452.358 685.877C439.573 697.623 424.449 687.936 412.323 694.46C407.76 704.873 415.783 718.168 407.48 728.383ZM434.515 670.341C430.71 673.537 426.887 676.749 423.082 679.929C421.418 678.545 419.77 677.128 418.106 675.712C420.594 671.444 423.082 667.194 425.569 662.96C428.551 665.464 431.533 667.902 434.515 670.341ZM461.716 726.356C456.18 727.444 448.98 728.234 444.664 725.549C434.219 719.008 425.059 710.408 415.371 702.648C416.146 701.479 416.92 700.292 417.678 699.139C423.46 702.385 428.93 706.537 435.092 708.662C442.259 711.133 450.101 711.594 457.548 713.39C460.843 714.197 463.923 716.059 467.12 717.443C465.357 720.573 464.039 725.895 461.716 726.356ZM507.286 735.566C503.975 745.764 492.063 750.459 481.898 749.075C476.395 748.334 470.645 746.884 468.388 741.859C468.256 741.579 468.158 741.299 468.042 741.003C461.518 722.023 484.435 718.069 496.116 716.932C506.792 715.911 510.235 726.587 507.286 735.566ZM492.771 670.785C505.424 666.172 515.524 667.935 519.296 675.58C522.295 681.643 516.957 696.767 509.428 701.956C500.976 707.772 491.602 709.848 482.557 703.769C474.319 698.266 469.558 690.654 474.072 680.292C467.532 679.55 462.029 678.941 456.23 678.265C466.938 670.291 476.164 663.635 484.946 656.485C485.753 655.843 483.825 651.823 483.545 650.818C487.796 647.934 491.618 645.331 495.473 642.745C494.847 641.773 494.238 640.817 493.595 639.845C486.544 640.224 480.975 641.839 477.647 650.109C474.748 657.325 468.784 662.235 459.936 658.577C462.803 655.002 465.34 651.246 467.96 647.671C455.785 643.651 453.495 637.473 458.734 623.354C462.391 632.3 465.143 639.021 468.421 647.028C471.321 643.157 474.336 639.565 478.059 636.929C483.924 632.744 492.87 632.481 500.564 631.608C501.619 631.492 504.65 637.885 504.551 641.196C504.419 644.557 501.569 647.852 501.009 654.805C509.115 653.437 517.204 651.856 525.376 650.801C528.341 650.422 531.455 651.213 534.519 651.46C533.432 654.063 533.02 657.391 531.126 659.138C522.526 667.161 512.014 669.303 501.586 664.097C492.722 659.665 489.295 663.125 485.473 672.054C488.966 671.477 490.959 671.428 492.771 670.785ZM618.79 718.843C615.973 718.267 612.299 716.768 607.636 716.306C605.313 716.01 602.842 715.73 600.206 715.4C597.636 714.824 594.802 715.598 591.968 715.466C586.301 715.219 580.469 716.883 574.554 717.789C571.737 718.794 568.903 719.783 566.119 720.771C563.219 721.529 560.814 723.176 558.26 724.461C555.904 725.977 553.005 726.719 551.143 728.448C549.051 729.997 547.057 731.447 545.228 732.798C541.439 735.467 538.754 738.91 536.645 740.739C534.585 742.732 533.317 743.803 533.317 743.803C533.317 743.803 533.91 742.255 535.145 739.652C536.727 737.246 537.551 733.111 541.093 729.388C542.823 727.476 544.701 725.368 546.695 723.143C548.589 720.689 551.258 719.222 553.911 717.311C556.646 715.598 559.183 713.291 562.494 712.319C565.657 711.084 568.887 709.848 572.099 708.579C575.51 708.069 578.92 707.558 582.297 707.031C585.642 706.224 589.019 706.981 592.215 707.097C595.395 707.426 598.558 707.393 601.326 708.563C604.094 709.486 606.697 710.359 609.119 711.166C613.946 712.566 617.093 715.927 619.614 717.196C622.002 718.827 623.238 719.832 623.238 719.832C623.238 719.832 621.541 719.552 618.79 718.843Z" stroke="#AC4A36" stroke-width="20" mask="url(#path-2-inside-1_294_20)"/>
<path d="M488.791 733.213L490.727 734.859C487.829 735.212 484.834 735.302 481.589 735.4C481.414 735.405 481.239 735.411 481.062 735.416C482.23 733.571 483.429 731.683 484.696 729.688C484.756 729.739 484.815 729.791 484.874 729.841C486.389 731.152 487.679 732.268 488.791 733.213Z" stroke="#AC4A36" stroke-width="10"/>
<path d="M501.705 682.411C501.805 682.498 501.908 682.589 502.014 682.682C499.057 685.118 496.316 687.361 493.367 689.282C493.18 689.135 492.985 688.974 492.787 688.803C492.103 688.212 491.534 687.627 491.171 687.167C491.263 686.137 491.5 685.489 491.731 685.077C491.999 684.6 492.411 684.165 493.174 683.76C494.747 682.927 497.443 682.41 501.705 682.411Z" stroke="#AC4A36" stroke-width="10"/>
<path d="M312.805 497.072C312.805 501.544 309.18 505.169 304.708 505.169C300.235 505.169 296.61 501.544 296.61 497.072C296.61 492.599 300.235 488.974 304.708 488.974C309.18 488.974 312.805 492.599 312.805 497.072Z" stroke="#AC4A36" stroke-width="10"/>
<path d="M650.157 231.077C650.159 230.532 650.157 230.077 650.138 229.644L650.137 229.623L650.137 229.601C649.132 199.819 647.066 166.554 638.254 136.576C629.465 106.672 614.104 80.51 586.813 64.3024L650.157 231.077ZM650.157 231.077C650.045 231.159 649.938 231.24 649.837 231.315C649.786 231.353 649.738 231.389 649.691 231.424C649.287 231.725 648.924 231.992 648.549 232.246C647.808 232.746 647.109 233.13 646.367 233.384L646.016 233.504L645.687 233.674C644.311 234.385 642.756 234.801 640.596 235.377C639.944 235.552 639.237 235.74 638.463 235.957C632.999 237.085 627.192 237.495 622.695 237.595C620.395 237.514 618.474 237.446 617.121 237.398C616.431 237.373 615.888 237.354 615.519 237.34L615.096 237.325L614.988 237.321L614.961 237.32L614.954 237.32L614.953 237.32L614.952 237.32L613.661 247.192L614.77 242.316L613.661 247.192L613.661 247.192L613.661 247.192L613.663 247.192L613.67 247.194L613.697 247.2L613.804 247.224L614.22 247.319L615.799 247.678C617.159 247.987 619.099 248.428 621.423 248.955L621.529 248.979L621.635 248.999C626.555 249.893 633.314 250.751 640.34 250.61L640.502 250.607L640.664 250.593C641.183 250.549 641.743 250.509 642.334 250.467C644.659 250.301 647.466 250.1 650.179 249.479C650.029 256.317 649.69 263.145 649.184 269.962C648.982 270.108 648.785 270.248 648.584 270.383C647.844 270.881 647.142 271.266 646.392 271.521L646.03 271.644L645.692 271.82C644.318 272.535 642.754 272.952 640.556 273.539C639.924 273.707 639.24 273.89 638.494 274.097C633.013 275.242 627.205 275.633 622.746 275.67C620.431 275.589 618.498 275.521 617.138 275.472L616.545 275.451C616.131 275.436 615.791 275.424 615.535 275.414L615.113 275.399L615.005 275.395L614.978 275.394L614.971 275.394L614.969 275.394L614.969 275.394L613.677 285.266L614.786 280.39L613.677 285.266L613.678 285.266L613.679 285.266L613.686 285.268L613.714 285.274L613.821 285.298L614.238 285.393L615.819 285.752C617.182 286.062 619.127 286.503 621.46 287.03L621.562 287.053L621.665 287.072C626.572 287.967 633.331 288.825 640.357 288.684L640.519 288.681L640.68 288.668C641.2 288.623 641.759 288.583 642.35 288.541C643.903 288.43 645.67 288.304 647.481 288.047C644.098 317.139 638.043 346.011 630.877 374.631C626.13 393.484 621.553 412.745 619.436 432.466L619.436 432.468C619.368 433.102 619.292 433.804 619.208 434.567C618.503 441.027 617.325 451.824 617.007 462.197C616.92 465.03 616.896 467.874 616.967 470.625C614.547 467.757 612.144 464.819 609.725 461.801C578.242 422.442 550.459 373.291 550.459 325.499C550.459 324.675 550.497 324.09 550.543 323.389C550.58 322.817 550.622 322.168 550.653 321.25C550.711 319.784 550.729 318.465 550.746 317.225C550.779 314.835 550.807 312.743 551.108 310.47L551.109 310.464C552.364 300.873 553.805 291.174 555.254 281.424C557.533 266.085 559.831 250.622 561.453 235.263L561.455 235.247L561.456 235.231C561.576 234.02 561.721 232.724 561.869 231.391C562.117 229.175 562.375 226.857 562.551 224.658C563.1 218.319 563.096 212.541 562.911 207.04L562.911 207.034C562.362 191.202 559.104 177.602 553.492 164.015C550.124 155.835 545.901 147.587 541.041 138.899L541.038 138.893C540.751 138.383 540.443 137.819 540.12 137.229C539.554 136.194 538.943 135.076 538.321 134.011C537.992 133.435 537.658 132.853 537.32 132.264C531.335 121.82 524.201 109.375 520.509 97.0979L520.505 97.0844C519.398 93.44 518.655 89.9098 518.345 86.5096C518.123 83.982 518.09 81.6536 518.344 79.4723C518.377 79.2679 518.393 79.0945 518.401 78.964C518.404 78.9213 518.407 78.881 518.408 78.8437C519.591 70.1408 523.757 64.5046 529.486 60.894C535.434 57.1442 543.393 55.3975 552.082 55.3975C564.846 55.3975 578.121 59.1443 586.812 64.3015L650.157 231.077ZM558.226 68.7832L558.285 68.7898C559.307 68.9033 560.284 69.28 561.139 69.9195L561.142 69.9218L561.145 69.924M558.226 68.7832L558.145 73.924L561.145 69.924M558.226 68.7832L558.166 68.778C556.202 68.6073 554.456 69.4796 553.375 70.8263C552.362 72.088 552.038 73.5869 552.138 74.8841L552.156 75.1154L552.195 75.3441L557.123 74.5006C552.195 75.3441 552.195 75.3444 552.195 75.3447L552.195 75.3454L552.195 75.3468L552.196 75.3502L552.198 75.3591L552.202 75.3849L552.217 75.4676C552.229 75.5364 552.247 75.6323 552.269 75.7529C552.315 75.9941 552.381 76.3352 552.47 76.759C552.642 77.5802 552.897 78.7198 553.244 80.0492M558.226 68.7832L553.244 80.0492M561.145 69.924L561.162 69.9369L561.228 69.9862C561.282 70.0275 561.358 70.0855 561.454 70.1592C561.646 70.3067 561.917 70.5176 562.252 70.7847C562.913 71.3112 563.827 72.0608 564.874 72.9771L564.894 72.9938C565.891 73.8299 567.205 74.9315 568.484 76.1563C568.984 76.6321 569.523 77.1066 570.166 77.6722C570.419 77.895 570.688 78.1319 570.978 78.3886C571.935 79.2388 573.033 80.2387 574.062 81.3431C576.021 83.4453 578.383 86.5949 578.607 90.7108C578.783 93.7298 578.276 97.7519 575.457 100.4C573.887 101.876 571.837 102.662 569.601 102.595C567.511 102.533 565.564 101.742 563.853 100.673C563.291 100.323 562.766 99.9467 562.274 99.5482C562.332 99.9214 562.373 100.303 562.395 100.694L562.396 100.696C562.565 103.712 562.048 107.727 559.233 110.372C557.669 111.842 555.625 112.632 553.391 112.57C551.299 112.512 549.351 111.723 547.64 110.655C544.345 108.601 542.294 105.606 540.939 102.756C539.618 99.9782 538.812 97.0138 538.205 94.647C537.702 92.9865 537.323 91.4031 537.033 90.048C536.684 88.6966 536.431 87.5504 536.263 86.7274C536.176 86.3043 536.111 85.9648 536.067 85.7246C536.045 85.6045 536.028 85.509 536.016 85.4403L536.002 85.3573L536 85.3425C535.759 83.9434 536.002 82.2756 537.094 80.8691C538.217 79.4219 539.949 78.6543 541.722 78.7314L541.89 78.7387L542.057 78.7573C543.336 78.8994 544.241 79.4481 544.567 79.6514L544.735 79.7568L544.895 79.8753L541.917 83.8914C544.895 79.8753 544.895 79.8754 544.896 79.8756L544.896 79.876L544.897 79.8769L544.9 79.8789L544.907 79.8841L544.927 79.8993L544.993 79.9486C545.048 79.9898 545.124 80.0476 545.22 80.1211C545.411 80.2679 545.682 80.478 546.017 80.7448C546.68 81.2734 547.602 82.0291 548.665 82.9608C548.836 83.1066 549.021 83.2633 549.217 83.4295C550.094 84.1727 551.195 85.1063 552.253 86.105L552.271 86.1217L552.288 86.1385C552.796 86.6274 553.35 87.1186 554.016 87.7083C554.251 87.9165 554.5 88.1369 554.766 88.3739C555.077 88.651 555.402 88.9441 555.736 89.2515C555.18 87.6116 554.755 86.0231 554.397 84.6504C553.915 83.0082 553.537 81.4327 553.244 80.0492M561.145 69.924L553.244 80.0492M541.034 85.0821C540.962 84.7076 540.928 84.501 540.928 84.501L541.034 85.0821ZM541.241 86.106C541.17 85.7748 541.112 85.4879 541.067 85.2519L539.267 88.1314C539.268 88.1324 539.27 88.1335 539.272 88.1349C539.36 88.1902 539.994 88.5895 540.953 88.6961L541.241 86.106Z" stroke="#AC4A36" stroke-width="10"/>
</g>
<defs>
<clipPath id="clip0_294_20">
<rect width="800" height="800" fill="white"/>
</clipPath>
</defs>
</svg>
