<?xml version="1.0" encoding="iso-8859-1"?>
<!-- Uploaded to: SVG Repo, www.svgrepo.com, Generator: SVG Repo Mixer Tools -->
<svg height="800px" width="800px" version="1.1" id="Capa_1" xmlns="http://www.w3.org/2000/svg" xmlns:xlink="http://www.w3.org/1999/xlink" 
	 viewBox="0 0 42.292 42.292" xml:space="preserve">
<g>
	<path style="fill:#010002;" d="M42.278,12.723c-0.142-3.399-2.908-6.127-6.325-6.2c-0.048-0.001-0.093-0.007-0.14-0.007
		c-7.695,0-15.392-0.001-23.088,0c-3.777,0-8.393-0.95-11.123,2.371C1.375,9.163,1.176,9.46,0.996,9.77
		c-0.075,0.129-0.143,0.262-0.209,0.396c-0.161,0.329-0.296,0.672-0.4,1.029c-0.677,2.336-0.259,5.156-0.259,7.559
		c0.002,3.558,0.002,7.114,0.002,10.67c0,0.767,0.141,1.5,0.387,2.183c0.121,0.336,0.264,0.66,0.436,0.969
		c0.076,0.136,0.157,0.269,0.243,0.398c0.191,0.291,0.408,0.562,0.642,0.817c0.947,1.034,2.221,1.758,3.659,2.009
		c0.347,0.061,0.703,0.098,1.066,0.1c0.016,0,0.031,0.002,0.046,0.002h0.578c0,0,1.031,0,1.069,0c7.192,0,14.383,0,21.575,0h1.919
		h0.328h2.079h1.656c3.572,0,6.479-2.905,6.479-6.479V13.372v-0.377C42.293,12.903,42.282,12.814,42.278,12.723z M35.816,9.517
		c1.369,0,2.547,0.804,3.112,1.958l-18.442,7.173c-0.014-0.026-0.028-0.051-0.042-0.076l12.534-9.055H35.816z M28.614,9.516
		L28.614,9.516l-9.304,7.583c-0.155-0.149-0.318-0.289-0.487-0.422l4.321-7.161H28.614z M19.092,9.518h1.402l-2.947,5.595
		L19.092,9.518z M13.3,9.519L13.3,9.519l0.458,5.953c-0.178,0.035-0.352,0.081-0.523,0.131l-2.601-6.084
		C10.634,9.519,13.3,9.519,13.3,9.519z M6.609,9.517h1.519l3.418,6.864c-0.259,0.171-0.502,0.364-0.732,0.57l-6.942-6.077
		C4.51,10.054,5.493,9.517,6.609,9.517z M3.131,13.328L3.131,13.328l6.5,5.055c-0.059,0.097-0.118,0.194-0.171,0.295l-6.329-2.422
		L3.131,13.328L3.131,13.328L3.131,13.328z M3.129,18.619l5.717,1.815c-0.007,0.037-0.011,0.076-0.017,0.113l-5.7-0.275
		C3.129,20.272,3.129,18.619,3.129,18.619z M3.129,22.462l5.664-0.056c0.006,0.044,0.013,0.087,0.02,0.13l-5.684,1.585V22.462z
		 M3.13,29.424v-2.978H3.129l6.234-2.137c0.07,0.146,0.145,0.287,0.226,0.426l-6.44,4.879C3.145,29.55,3.13,29.489,3.13,29.424z
		 M7.252,32.903H6.609c-0.977,0-1.857-0.407-2.49-1.059l6.636-5.66c0.121,0.11,0.244,0.217,0.374,0.319L7.252,32.903z
		 M13.902,32.903H9.845l2.901-5.482c0.416,0.16,0.852,0.273,1.305,0.342L13.902,32.903z M15.505,9.518h1.298l-1.194,5.571
		L15.505,9.518z M16.059,32.903l-0.149-5.141c0.322-0.048,0.638-0.113,0.942-0.209l2.418,5.35H16.059z M21.753,32.903l-3.232-6.168
		c0.201-0.137,0.39-0.291,0.573-0.45l7.388,6.618H21.753z M35.816,32.903h-5.427l-10.097-8.039c0.119-0.191,0.227-0.391,0.324-0.596
		l18.503,6.184C38.679,31.867,37.373,32.903,35.816,32.903z M39.294,27.401l-17.997-4.874l17.997,0.523V27.401z M39.294,20.138
		l-18.145,0.527c-0.015-0.101-0.026-0.202-0.046-0.301l18.191-6.001V20.138z"/>
</g>
</svg>